<svg preserveAspectRatio="none" width="100%" height="100%" overflow="visible" style="display: block;" viewBox="0 0 184.823 385.287" fill="none" xmlns="http://www.w3.org/2000/svg">
<path id="Vector" d="M138.955 385.286H182.276C182.656 385.28 183.03 385.189 183.369 385.019C183.709 384.849 184.007 384.605 184.239 384.304C184.47 384.038 184.639 383.724 184.734 383.384C184.829 383.045 184.848 382.688 184.789 382.341C177.152 341.769 142.45 194.842 16.5313 0.197519C11.8193 0.0404528 8.03002 -0.00861634 5.23227 0.00120033C3.90702 2.9462 2.11058 7.13791 0 12.5273C115.552 194.136 133.595 341.877 136.363 383.048C136.435 383.678 136.741 384.259 137.221 384.674C137.702 385.089 138.321 385.307 138.955 385.286Z" fill="var(--fill-0, #F5F5F5)" fill-opacity="0.2"/>
</svg>
